<mxfile host="Electron" agent="Mozilla/5.0 (Windows NT 10.0; Win64; x64) AppleWebKit/537.36 (KHTML, like Gecko) draw.io/26.2.2 Chrome/134.0.6998.178 Electron/35.1.2 Safari/537.36" version="26.2.2">
  <diagram name="Page-1" id="gXjWDewSvUz-Aty2plxZ">
    <mxGraphModel dx="788" dy="516" grid="1" gridSize="10" guides="1" tooltips="1" connect="1" arrows="1" fold="1" page="1" pageScale="1" pageWidth="827" pageHeight="1169" math="0" shadow="0">
      <root>
        <mxCell id="0" />
        <mxCell id="1" parent="0" />
        <mxCell id="ffmf4VCYSIaKg9Xy0DXj-6" value="&amp;lt;&amp;lt;Abstract&amp;gt;&amp;gt;Person" style="swimlane;fontStyle=1;align=center;verticalAlign=top;childLayout=stackLayout;horizontal=1;startSize=26;horizontalStack=0;resizeParent=1;resizeParentMax=0;resizeLast=0;collapsible=1;marginBottom=0;whiteSpace=wrap;html=1;" parent="1" vertex="1">
          <mxGeometry x="465" y="860" width="160" height="168" as="geometry" />
        </mxCell>
        <mxCell id="ffmf4VCYSIaKg9Xy0DXj-7" value="+id:int" style="text;strokeColor=none;fillColor=none;align=left;verticalAlign=top;spacingLeft=4;spacingRight=4;overflow=hidden;rotatable=0;points=[[0,0.5],[1,0.5]];portConstraint=eastwest;whiteSpace=wrap;html=1;" parent="ffmf4VCYSIaKg9Xy0DXj-6" vertex="1">
          <mxGeometry y="26" width="160" height="26" as="geometry" />
        </mxCell>
        <mxCell id="ffmf4VCYSIaKg9Xy0DXj-10" value="+name : String" style="text;strokeColor=none;fillColor=none;align=left;verticalAlign=top;spacingLeft=4;spacingRight=4;overflow=hidden;rotatable=0;points=[[0,0.5],[1,0.5]];portConstraint=eastwest;whiteSpace=wrap;html=1;" parent="ffmf4VCYSIaKg9Xy0DXj-6" vertex="1">
          <mxGeometry y="52" width="160" height="26" as="geometry" />
        </mxCell>
        <mxCell id="ffmf4VCYSIaKg9Xy0DXj-11" value="+secondName : String" style="text;strokeColor=none;fillColor=none;align=left;verticalAlign=top;spacingLeft=4;spacingRight=4;overflow=hidden;rotatable=0;points=[[0,0.5],[1,0.5]];portConstraint=eastwest;whiteSpace=wrap;html=1;" parent="ffmf4VCYSIaKg9Xy0DXj-6" vertex="1">
          <mxGeometry y="78" width="160" height="26" as="geometry" />
        </mxCell>
        <mxCell id="ffmf4VCYSIaKg9Xy0DXj-12" value="+Age: int" style="text;strokeColor=none;fillColor=none;align=left;verticalAlign=top;spacingLeft=4;spacingRight=4;overflow=hidden;rotatable=0;points=[[0,0.5],[1,0.5]];portConstraint=eastwest;whiteSpace=wrap;html=1;" parent="ffmf4VCYSIaKg9Xy0DXj-6" vertex="1">
          <mxGeometry y="104" width="160" height="30" as="geometry" />
        </mxCell>
        <mxCell id="ffmf4VCYSIaKg9Xy0DXj-8" value="" style="line;strokeWidth=1;fillColor=none;align=left;verticalAlign=middle;spacingTop=-1;spacingLeft=3;spacingRight=3;rotatable=0;labelPosition=right;points=[];portConstraint=eastwest;strokeColor=inherit;" parent="ffmf4VCYSIaKg9Xy0DXj-6" vertex="1">
          <mxGeometry y="134" width="160" height="8" as="geometry" />
        </mxCell>
        <mxCell id="ffmf4VCYSIaKg9Xy0DXj-9" value="+ method(type): type" style="text;strokeColor=none;fillColor=none;align=left;verticalAlign=top;spacingLeft=4;spacingRight=4;overflow=hidden;rotatable=0;points=[[0,0.5],[1,0.5]];portConstraint=eastwest;whiteSpace=wrap;html=1;" parent="ffmf4VCYSIaKg9Xy0DXj-6" vertex="1">
          <mxGeometry y="142" width="160" height="26" as="geometry" />
        </mxCell>
        <mxCell id="ffmf4VCYSIaKg9Xy0DXj-13" value="Bus" style="swimlane;fontStyle=1;align=center;verticalAlign=top;childLayout=stackLayout;horizontal=1;startSize=26;horizontalStack=0;resizeParent=1;resizeParentMax=0;resizeLast=0;collapsible=1;marginBottom=0;whiteSpace=wrap;html=1;" parent="1" vertex="1">
          <mxGeometry x="930" y="982" width="160" height="112" as="geometry" />
        </mxCell>
        <mxCell id="ffmf4VCYSIaKg9Xy0DXj-14" value="+Immatriculation : String" style="text;strokeColor=none;fillColor=none;align=left;verticalAlign=top;spacingLeft=4;spacingRight=4;overflow=hidden;rotatable=0;points=[[0,0.5],[1,0.5]];portConstraint=eastwest;whiteSpace=wrap;html=1;" parent="ffmf4VCYSIaKg9Xy0DXj-13" vertex="1">
          <mxGeometry y="26" width="160" height="26" as="geometry" />
        </mxCell>
        <mxCell id="ffmf4VCYSIaKg9Xy0DXj-17" value="+Model : String" style="text;strokeColor=none;fillColor=none;align=left;verticalAlign=top;spacingLeft=4;spacingRight=4;overflow=hidden;rotatable=0;points=[[0,0.5],[1,0.5]];portConstraint=eastwest;whiteSpace=wrap;html=1;" parent="ffmf4VCYSIaKg9Xy0DXj-13" vertex="1">
          <mxGeometry y="52" width="160" height="26" as="geometry" />
        </mxCell>
        <mxCell id="ffmf4VCYSIaKg9Xy0DXj-15" value="" style="line;strokeWidth=1;fillColor=none;align=left;verticalAlign=middle;spacingTop=-1;spacingLeft=3;spacingRight=3;rotatable=0;labelPosition=right;points=[];portConstraint=eastwest;strokeColor=inherit;" parent="ffmf4VCYSIaKg9Xy0DXj-13" vertex="1">
          <mxGeometry y="78" width="160" height="8" as="geometry" />
        </mxCell>
        <mxCell id="ffmf4VCYSIaKg9Xy0DXj-16" value="+ method(type): type" style="text;strokeColor=none;fillColor=none;align=left;verticalAlign=top;spacingLeft=4;spacingRight=4;overflow=hidden;rotatable=0;points=[[0,0.5],[1,0.5]];portConstraint=eastwest;whiteSpace=wrap;html=1;" parent="ffmf4VCYSIaKg9Xy0DXj-13" vertex="1">
          <mxGeometry y="86" width="160" height="26" as="geometry" />
        </mxCell>
        <mxCell id="ffmf4VCYSIaKg9Xy0DXj-18" value="Tiket" style="swimlane;fontStyle=1;align=center;verticalAlign=top;childLayout=stackLayout;horizontal=1;startSize=26;horizontalStack=0;resizeParent=1;resizeParentMax=0;resizeLast=0;collapsible=1;marginBottom=0;whiteSpace=wrap;html=1;" parent="1" vertex="1">
          <mxGeometry x="530" y="1324" width="160" height="138" as="geometry" />
        </mxCell>
        <mxCell id="ffmf4VCYSIaKg9Xy0DXj-19" value="+Id : UUID" style="text;strokeColor=none;fillColor=none;align=left;verticalAlign=top;spacingLeft=4;spacingRight=4;overflow=hidden;rotatable=0;points=[[0,0.5],[1,0.5]];portConstraint=eastwest;whiteSpace=wrap;html=1;" parent="ffmf4VCYSIaKg9Xy0DXj-18" vertex="1">
          <mxGeometry y="26" width="160" height="26" as="geometry" />
        </mxCell>
        <mxCell id="ffmf4VCYSIaKg9Xy0DXj-22" value="+Status : boolean&amp;nbsp;" style="text;strokeColor=none;fillColor=none;align=left;verticalAlign=top;spacingLeft=4;spacingRight=4;overflow=hidden;rotatable=0;points=[[0,0.5],[1,0.5]];portConstraint=eastwest;whiteSpace=wrap;html=1;" parent="ffmf4VCYSIaKg9Xy0DXj-18" vertex="1">
          <mxGeometry y="52" width="160" height="26" as="geometry" />
        </mxCell>
        <mxCell id="ffmf4VCYSIaKg9Xy0DXj-20" value="" style="line;strokeWidth=1;fillColor=none;align=left;verticalAlign=middle;spacingTop=-1;spacingLeft=3;spacingRight=3;rotatable=0;labelPosition=right;points=[];portConstraint=eastwest;strokeColor=inherit;" parent="ffmf4VCYSIaKg9Xy0DXj-18" vertex="1">
          <mxGeometry y="78" width="160" height="8" as="geometry" />
        </mxCell>
        <mxCell id="ffmf4VCYSIaKg9Xy0DXj-21" value="+getId() : String&lt;div&gt;&lt;br/&gt;&lt;/div&gt;" style="text;strokeColor=none;fillColor=none;align=left;verticalAlign=top;spacingLeft=4;spacingRight=4;overflow=hidden;rotatable=0;points=[[0,0.5],[1,0.5]];portConstraint=eastwest;whiteSpace=wrap;html=1;" parent="ffmf4VCYSIaKg9Xy0DXj-18" vertex="1">
          <mxGeometry y="86" width="160" height="26" as="geometry" />
        </mxCell>
        <mxCell id="ffmf4VCYSIaKg9Xy0DXj-27" value="&lt;div&gt;+getStatus() : Boolean&amp;nbsp;&lt;/div&gt;" style="text;strokeColor=none;fillColor=none;align=left;verticalAlign=top;spacingLeft=4;spacingRight=4;overflow=hidden;rotatable=0;points=[[0,0.5],[1,0.5]];portConstraint=eastwest;whiteSpace=wrap;html=1;" parent="ffmf4VCYSIaKg9Xy0DXj-18" vertex="1">
          <mxGeometry y="112" width="160" height="26" as="geometry" />
        </mxCell>
        <mxCell id="ffmf4VCYSIaKg9Xy0DXj-44" value="&lt;p style=&quot;margin:0px;margin-top:4px;text-align:center;&quot;&gt;&lt;span style=&quot;font-weight: 700;&quot;&gt;&amp;lt;&amp;lt;Interface&amp;gt;&amp;gt;&lt;/span&gt;&lt;/p&gt;&lt;div style=&quot;font-weight: 700; text-align: center;&quot;&gt;&amp;nbsp;Operation&lt;/div&gt;&lt;hr size=&quot;1&quot; style=&quot;border-style:solid;&quot;&gt;&amp;nbsp;+BuyTicket(): String&lt;div&gt;&amp;nbsp;&lt;/div&gt;&lt;div&gt;&amp;nbsp;+getTicket() : String&lt;br&gt;&lt;br&gt;&amp;nbsp;+getListTicket():List&amp;lt;String&amp;gt;&lt;/div&gt;&lt;div&gt;&lt;br&gt;&lt;/div&gt;&lt;div&gt;&lt;br&gt;&lt;/div&gt;&lt;div&gt;&lt;br&gt;&lt;div style=&quot;text-align: center; height: 2px;&quot;&gt;&lt;br&gt;&lt;/div&gt;&lt;/div&gt;" style="verticalAlign=top;align=left;overflow=fill;html=1;whiteSpace=wrap;" parent="1" vertex="1">
          <mxGeometry x="70" y="954" width="160" height="140" as="geometry" />
        </mxCell>
        <mxCell id="ffmf4VCYSIaKg9Xy0DXj-99" style="edgeStyle=orthogonalEdgeStyle;rounded=0;orthogonalLoop=1;jettySize=auto;html=1;entryX=0.5;entryY=0;entryDx=0;entryDy=0;" parent="1" source="ffmf4VCYSIaKg9Xy0DXj-54" target="ffmf4VCYSIaKg9Xy0DXj-18" edge="1">
          <mxGeometry relative="1" as="geometry">
            <Array as="points">
              <mxPoint x="385" y="1274" />
              <mxPoint x="610" y="1274" />
            </Array>
          </mxGeometry>
        </mxCell>
        <mxCell id="ffmf4VCYSIaKg9Xy0DXj-54" value="Customer" style="swimlane;fontStyle=1;align=center;verticalAlign=top;childLayout=stackLayout;horizontal=1;startSize=26;horizontalStack=0;resizeParent=1;resizeParentMax=0;resizeLast=0;collapsible=1;marginBottom=0;whiteSpace=wrap;html=1;" parent="1" vertex="1">
          <mxGeometry x="305" y="1124" width="160" height="100" as="geometry" />
        </mxCell>
        <mxCell id="ffmf4VCYSIaKg9Xy0DXj-55" value="+tikets : List&amp;lt;Tiket&amp;gt;" style="text;strokeColor=none;fillColor=none;align=left;verticalAlign=top;spacingLeft=4;spacingRight=4;overflow=hidden;rotatable=0;points=[[0,0.5],[1,0.5]];portConstraint=eastwest;whiteSpace=wrap;html=1;" parent="ffmf4VCYSIaKg9Xy0DXj-54" vertex="1">
          <mxGeometry y="26" width="160" height="26" as="geometry" />
        </mxCell>
        <mxCell id="ffmf4VCYSIaKg9Xy0DXj-56" value="" style="line;strokeWidth=1;fillColor=none;align=left;verticalAlign=middle;spacingTop=-1;spacingLeft=3;spacingRight=3;rotatable=0;labelPosition=right;points=[];portConstraint=eastwest;strokeColor=inherit;" parent="ffmf4VCYSIaKg9Xy0DXj-54" vertex="1">
          <mxGeometry y="52" width="160" height="8" as="geometry" />
        </mxCell>
        <mxCell id="ffmf4VCYSIaKg9Xy0DXj-57" value="+ method(type): type" style="text;strokeColor=none;fillColor=none;align=left;verticalAlign=top;spacingLeft=4;spacingRight=4;overflow=hidden;rotatable=0;points=[[0,0.5],[1,0.5]];portConstraint=eastwest;whiteSpace=wrap;html=1;" parent="ffmf4VCYSIaKg9Xy0DXj-54" vertex="1">
          <mxGeometry y="60" width="160" height="40" as="geometry" />
        </mxCell>
        <mxCell id="ffmf4VCYSIaKg9Xy0DXj-70" value="Driver" style="swimlane;fontStyle=1;align=center;verticalAlign=top;childLayout=stackLayout;horizontal=1;startSize=26;horizontalStack=0;resizeParent=1;resizeParentMax=0;resizeLast=0;collapsible=1;marginBottom=0;whiteSpace=wrap;html=1;" parent="1" vertex="1">
          <mxGeometry x="565" y="1112" width="160" height="90" as="geometry" />
        </mxCell>
        <mxCell id="ffmf4VCYSIaKg9Xy0DXj-72" value="" style="line;strokeWidth=1;fillColor=none;align=left;verticalAlign=middle;spacingTop=-1;spacingLeft=3;spacingRight=3;rotatable=0;labelPosition=right;points=[];portConstraint=eastwest;strokeColor=inherit;" parent="ffmf4VCYSIaKg9Xy0DXj-70" vertex="1">
          <mxGeometry y="26" width="160" height="8" as="geometry" />
        </mxCell>
        <mxCell id="ffmf4VCYSIaKg9Xy0DXj-73" value="+ScanTicket():List&amp;lt;Ticket&amp;gt;" style="text;strokeColor=none;fillColor=none;align=left;verticalAlign=top;spacingLeft=4;spacingRight=4;overflow=hidden;rotatable=0;points=[[0,0.5],[1,0.5]];portConstraint=eastwest;whiteSpace=wrap;html=1;" parent="ffmf4VCYSIaKg9Xy0DXj-70" vertex="1">
          <mxGeometry y="34" width="160" height="56" as="geometry" />
        </mxCell>
        <mxCell id="ffmf4VCYSIaKg9Xy0DXj-96" value="Extends" style="endArrow=block;endSize=16;endFill=0;html=1;rounded=0;exitX=0.5;exitY=0;exitDx=0;exitDy=0;entryX=0.228;entryY=1.167;entryDx=0;entryDy=0;entryPerimeter=0;" parent="1" source="ffmf4VCYSIaKg9Xy0DXj-54" target="ffmf4VCYSIaKg9Xy0DXj-9" edge="1">
          <mxGeometry width="160" relative="1" as="geometry">
            <mxPoint x="590" y="1044" as="sourcePoint" />
            <mxPoint x="520" y="1034" as="targetPoint" />
          </mxGeometry>
        </mxCell>
        <mxCell id="ffmf4VCYSIaKg9Xy0DXj-98" value="Extends" style="endArrow=block;endSize=16;endFill=0;html=1;rounded=0;exitX=0.5;exitY=0;exitDx=0;exitDy=0;entryX=0.55;entryY=0.962;entryDx=0;entryDy=0;entryPerimeter=0;" parent="1" source="ffmf4VCYSIaKg9Xy0DXj-70" target="ffmf4VCYSIaKg9Xy0DXj-9" edge="1">
          <mxGeometry width="160" relative="1" as="geometry">
            <mxPoint x="590" y="1044" as="sourcePoint" />
            <mxPoint x="750" y="1044" as="targetPoint" />
          </mxGeometry>
        </mxCell>
        <mxCell id="ffmf4VCYSIaKg9Xy0DXj-107" style="edgeStyle=orthogonalEdgeStyle;rounded=0;orthogonalLoop=1;jettySize=auto;html=1;entryX=0.75;entryY=0;entryDx=0;entryDy=0;" parent="1" source="ffmf4VCYSIaKg9Xy0DXj-73" target="ffmf4VCYSIaKg9Xy0DXj-18" edge="1">
          <mxGeometry relative="1" as="geometry">
            <mxPoint x="645" y="1314" as="targetPoint" />
            <Array as="points">
              <mxPoint x="770" y="1174" />
              <mxPoint x="770" y="1263" />
              <mxPoint x="650" y="1263" />
            </Array>
          </mxGeometry>
        </mxCell>
        <mxCell id="ffmf4VCYSIaKg9Xy0DXj-115" value="&lt;font style=&quot;font-size: 24px;&quot;&gt;*&lt;/font&gt;" style="edgeLabel;html=1;align=center;verticalAlign=middle;resizable=0;points=[];" parent="ffmf4VCYSIaKg9Xy0DXj-107" vertex="1" connectable="0">
          <mxGeometry x="0.8751" y="11" relative="1" as="geometry">
            <mxPoint y="1" as="offset" />
          </mxGeometry>
        </mxCell>
        <mxCell id="ffmf4VCYSIaKg9Xy0DXj-108" style="edgeStyle=orthogonalEdgeStyle;rounded=0;orthogonalLoop=1;jettySize=auto;html=1;exitX=1.026;exitY=0.136;exitDx=0;exitDy=0;exitPerimeter=0;entryX=0.026;entryY=-0.124;entryDx=0;entryDy=0;entryPerimeter=0;" parent="1" source="ffmf4VCYSIaKg9Xy0DXj-73" target="ffmf4VCYSIaKg9Xy0DXj-17" edge="1">
          <mxGeometry relative="1" as="geometry">
            <mxPoint x="800" y="1044" as="targetPoint" />
          </mxGeometry>
        </mxCell>
        <mxCell id="ffmf4VCYSIaKg9Xy0DXj-110" value="" style="endArrow=block;dashed=1;endFill=0;endSize=12;html=1;rounded=0;exitX=0.5;exitY=0;exitDx=0;exitDy=0;entryX=1;entryY=0.5;entryDx=0;entryDy=0;" parent="1" source="ffmf4VCYSIaKg9Xy0DXj-54" target="ffmf4VCYSIaKg9Xy0DXj-44" edge="1">
          <mxGeometry width="160" relative="1" as="geometry">
            <mxPoint x="420" y="1194" as="sourcePoint" />
            <mxPoint x="580" y="1194" as="targetPoint" />
          </mxGeometry>
        </mxCell>
        <mxCell id="ffmf4VCYSIaKg9Xy0DXj-111" value="1" style="text;html=1;align=center;verticalAlign=middle;resizable=0;points=[];autosize=1;strokeColor=none;fillColor=none;" parent="1" vertex="1">
          <mxGeometry x="350" y="1224" width="30" height="30" as="geometry" />
        </mxCell>
        <mxCell id="ffmf4VCYSIaKg9Xy0DXj-113" value="&lt;font style=&quot;font-size: 24px;&quot;&gt;*&lt;/font&gt;" style="text;html=1;align=center;verticalAlign=middle;resizable=0;points=[];autosize=1;strokeColor=none;fillColor=none;" parent="1" vertex="1">
          <mxGeometry x="580" y="1289" width="30" height="40" as="geometry" />
        </mxCell>
        <mxCell id="ffmf4VCYSIaKg9Xy0DXj-114" value="1" style="text;html=1;align=center;verticalAlign=middle;resizable=0;points=[];autosize=1;strokeColor=none;fillColor=none;" parent="1" vertex="1">
          <mxGeometry x="725" y="1172" width="30" height="30" as="geometry" />
        </mxCell>
        <mxCell id="ffmf4VCYSIaKg9Xy0DXj-119" value="1" style="text;html=1;align=center;verticalAlign=middle;resizable=0;points=[];autosize=1;strokeColor=none;fillColor=none;" parent="1" vertex="1">
          <mxGeometry x="725" y="1124" width="30" height="30" as="geometry" />
        </mxCell>
        <mxCell id="ffmf4VCYSIaKg9Xy0DXj-122" value="&lt;font style=&quot;font-size: 24px;&quot;&gt;*&lt;/font&gt;" style="text;html=1;align=center;verticalAlign=middle;resizable=0;points=[];autosize=1;strokeColor=none;fillColor=none;" parent="1" vertex="1">
          <mxGeometry x="900" y="1034" width="30" height="40" as="geometry" />
        </mxCell>
        <mxCell id="ffmf4VCYSIaKg9Xy0DXj-128" value="&lt;font style=&quot;font-size: 24px;&quot;&gt;&lt;u&gt;Ticket Managing Class Diagram&lt;/u&gt;&lt;/font&gt;&lt;div&gt;&lt;font size=&quot;3&quot;&gt;&lt;br&gt;&lt;/font&gt;&lt;/div&gt;" style="text;html=1;align=center;verticalAlign=middle;resizable=0;points=[];autosize=1;strokeColor=none;fillColor=none;" parent="1" vertex="1">
          <mxGeometry x="414" y="1500" width="360" height="60" as="geometry" />
        </mxCell>
      </root>
    </mxGraphModel>
  </diagram>
</mxfile>
